<svg width="10" height="13" viewBox="0 0 10 13" fill="none" xmlns="http://www.w3.org/2000/svg">
<path d="M6.18333 2.33333C6.825 2.33333 7.35 1.80833 7.35 1.16667C7.35 0.525 6.825 0 6.18333 0C5.54167 0 5.01667 0.525 5.01667 1.16667C5.01667 1.80833 5.54167 2.33333 6.18333 2.33333ZM4.08333 10.4417L4.66667 7.875L5.89167 9.04167V12.5417H7.05833V8.16667L5.83333 7L6.18333 5.25C6.94167 6.125 8.10833 6.70833 9.39167 6.70833V5.54167C8.28333 5.54167 7.35 4.95833 6.88333 4.14167L6.3 3.20833C6.06667 2.85833 5.71667 2.625 5.30833 2.625C5.13333 2.625 5.01667 2.68333 4.84167 2.68333L1.80833 3.96667V6.70833H2.975V4.725L4.025 4.31667L3.09167 9.04167L0.233333 8.45833L0 9.625L4.08333 10.4417Z" fill="#234958"/>
</svg>
